<?xml version="1.0" encoding="UTF-8"?>
<svg width="20px" height="18px" viewBox="0 0 20 18" version="1.1" xmlns="http://www.w3.org/2000/svg" xmlns:xlink="http://www.w3.org/1999/xlink">
    <!-- Generator: sketchtool 50.2 (55047) - http://www.bohemiancoding.com/sketch -->
    <title>158ACEA4-2230-4162-968F-FF35925988C6@1x</title>
    <desc>Created with sketchtool.</desc>
    <defs></defs>
    <g id="Homepage" stroke="none" stroke-width="1" fill="none" fill-rule="evenodd">
        <g id="Diversio_Homepage" transform="translate(-24.000000, -1523.000000)" fill="#939EAB">
            <g id="Group-6" transform="translate(24.000000, 1523.000000)">
                <path d="M19.3388801,0 L13.2537125,0 C13.0789564,0 12.9233729,0.0599194631 12.8028287,0.173959732 C12.7966583,0.179543624 12.7898267,0.185986577 12.782334,0.193288591 L12.7631615,0.21304698 C12.6529749,0.327946309 12.5925926,0.480214765 12.5925926,0.644510067 L12.5925926,0.859275168 C12.5925926,1.21449664 12.889215,1.50357047 13.2537125,1.50357047 L18.457387,1.50357047 L18.457387,16.0966443 L13.2537125,16.0966443 C12.889215,16.0966443 12.5925926,16.3857181 12.5925926,16.7409396 L12.5925926,16.9557047 C12.5925926,17.3109262 12.889215,17.6 13.2537125,17.6 L19.3388801,17.6 C19.7033776,17.6 20,17.3109262 20,16.9557047 L20,0.644295302 C20,0.289073826 19.7033776,0 19.3388801,0" id="Fill-4"></path>
                <path d="M2.9081897,9.53773086 L15.6302987,9.53773086 C15.80701,9.53773086 15.9641855,9.47848469 16.085397,9.36631755 C16.090725,9.36167906 16.096497,9.3561972 16.103157,9.35008283 L16.1233589,9.32984214 C16.2365785,9.21598828 16.2962963,9.06966498 16.2962963,8.9052094 L16.2962963,8.69436892 C16.2962963,8.34563875 15.9972634,8.06184746 15.6302987,8.06184746 L2.9086337,8.06184746 L6.70526426,4.91905916 C6.84756575,4.80141017 6.92415548,4.62831013 6.91549751,4.44424638 C6.90839354,4.29117619 6.84512376,4.1423228 6.73767614,4.02551718 L6.59182266,3.86654345 C6.47349708,3.73771991 6.30655367,3.66666667 6.12207232,3.66666667 C5.95268692,3.66666667 5.78085953,3.72844293 5.65098999,3.83597158 L0.212009249,8.33825933 C0.0774777257,8.44958311 0,8.61783382 0,8.8 C0,8.98216618 0.0772557264,9.15062773 0.212009249,9.26216235 L5.65098999,13.7638176 C5.78108153,13.8715571 5.95290892,13.9333333 6.12229432,13.9333333 C6.30677567,13.9333333 6.47371908,13.8622801 6.59160066,13.7332457 L6.73745414,13.574272 C6.84490176,13.4572555 6.90817154,13.3084021 6.91527551,13.1555428 C6.92393348,12.971479 6.84734375,12.7985898 6.70526426,12.6809408 L2.9081897,9.53773086 Z" id="Fill-1"></path>
            </g>
        </g>
    </g>
</svg>